<svg width="24" height="25" viewBox="0 0 24 25" fill="none" xmlns="http://www.w3.org/2000/svg">
<g clip-path="url(#clip0_944_10393)">
<path d="M12.0322 19.5C12.4263 19.5007 12.8166 19.4234 13.1808 19.2728C13.545 19.1221 13.8758 18.9009 14.1542 18.622L18.0732 14.7L16.6592 13.29L13.0262 16.924L13.0002 0.5H11.0002L11.0262 16.908L7.40619 13.288L5.99219 14.7L9.91119 18.619C10.1893 18.8983 10.5198 19.1199 10.8838 19.2711C11.2478 19.4223 11.638 19.5001 12.0322 19.5Z" fill="white"/>
<path d="M22 16.4999V21.4999C22 21.7651 21.8946 22.0194 21.7071 22.207C21.5196 22.3945 21.2652 22.4999 21 22.4999H3C2.73478 22.4999 2.48043 22.3945 2.29289 22.207C2.10536 22.0194 2 21.7651 2 21.4999V16.4999H0V21.4999C0 22.2955 0.31607 23.0586 0.87868 23.6212C1.44129 24.1838 2.20435 24.4999 3 24.4999H21C21.7956 24.4999 22.5587 24.1838 23.1213 23.6212C23.6839 23.0586 24 22.2955 24 21.4999V16.4999H22Z" fill="white"/>
</g>
<defs>
<clipPath id="clip0_944_10393">
<rect width="24" height="24" fill="white" transform="translate(0 0.5)"/>
</clipPath>
</defs>
</svg>
