<svg width="10" height="16" viewBox="0 0 10 16" fill="none" xmlns="http://www.w3.org/2000/svg">
<path d="M9.05471 6.48632L8.78944 8.71368C8.778 8.81715 8.72863 8.9127 8.65087 8.9819C8.57312 9.0511 8.47248 9.08905 8.36839 9.08842H6.05261V15.6989C6.05317 15.7779 6.0225 15.8538 5.96728 15.9102C5.91207 15.9666 5.83679 15.9989 5.75787 16H3.39788C3.35862 15.9995 3.31985 15.9912 3.28379 15.9756C3.24773 15.9601 3.21508 15.9376 3.18771 15.9095C3.16034 15.8813 3.13879 15.8481 3.12428 15.8116C3.10977 15.7751 3.10258 15.7361 3.10314 15.6968L3.11577 9.08842H1.36209C1.25042 9.08842 1.14333 9.04406 1.06436 8.9651C0.9854 8.88614 0.94104 8.77904 0.94104 8.66737V6.44C0.94104 6.32833 0.9854 6.22123 1.06436 6.14227C1.14333 6.06331 1.25042 6.01895 1.36209 6.01895H3.10525V3.85895C3.10525 1.36 4.59156 0 6.7684 0H8.55155C8.66322 0 8.77031 0.0443605 8.84928 0.123323C8.92824 0.202286 8.9726 0.309383 8.9726 0.421053V2.29684C8.9726 2.40851 8.92824 2.51561 8.84928 2.59457C8.77031 2.67353 8.66322 2.71789 8.55155 2.71789H7.45892C6.27576 2.73684 6.05261 3.30316 6.05261 4.14947V6.01263H8.64418C8.70331 6.01364 8.76156 6.0271 8.81513 6.05212C8.86871 6.07715 8.91642 6.11318 8.95515 6.15786C8.99388 6.20255 9.02276 6.25489 9.03991 6.31148C9.05707 6.36808 9.06211 6.42765 9.05471 6.48632Z" fill="white"/>
</svg>
