<svg width="17" height="17" viewBox="0 0 17 17" fill="none" xmlns="http://www.w3.org/2000/svg">
<g clip-path="url(#clip0_982_4221)">
<path d="M2.73173 16.4999L3.6204 14.722L5.3984 13.8333L3.6204 12.9446L2.73173 11.1666L1.84306 12.9446L0.0650635 13.8333L1.84306 14.722L2.73173 16.4999Z" fill="white"/>
<path d="M14.287 14.722L16.065 13.8333L14.287 12.9446L13.3984 11.1666L12.5097 12.9446L10.7317 13.8333L12.5097 14.722L13.3984 16.4999L14.287 14.722Z" fill="white"/>
<path d="M8.95376 2.278L8.0651 0.5L7.17643 2.278L5.39844 3.16667L7.17643 4.05533L8.0651 5.83333L8.95376 4.05533L10.7318 3.16667L8.95376 2.278Z" fill="white"/>
<path d="M3.39823 9.83334C3.76642 9.83334 4.0649 9.53486 4.0649 9.16667C4.0649 8.79848 3.76642 8.5 3.39823 8.5C3.03004 8.5 2.73157 8.79848 2.73157 9.16667C2.73157 9.53486 3.03004 9.83334 3.39823 9.83334Z" fill="white"/>
<path d="M0.73173 7.16671C1.09992 7.16671 1.3984 6.86823 1.3984 6.50004C1.3984 6.13185 1.09992 5.83337 0.73173 5.83337C0.36354 5.83337 0.0650635 6.13185 0.0650635 6.50004C0.0650635 6.86823 0.36354 7.16671 0.73173 7.16671Z" fill="white"/>
<path d="M3.39823 4.49983C3.76642 4.49983 4.0649 4.20136 4.0649 3.83317C4.0649 3.46498 3.76642 3.1665 3.39823 3.1665C3.03004 3.1665 2.73157 3.46498 2.73157 3.83317C2.73157 4.20136 3.03004 4.49983 3.39823 4.49983Z" fill="white"/>
<path d="M0.73173 1.83333C1.09992 1.83333 1.3984 1.53486 1.3984 1.16667C1.3984 0.798477 1.09992 0.5 0.73173 0.5C0.36354 0.5 0.0650635 0.798477 0.0650635 1.16667C0.0650635 1.53486 0.36354 1.83333 0.73173 1.83333Z" fill="white"/>
<path d="M15.3983 9.83334C15.7665 9.83334 16.065 9.53486 16.065 9.16667C16.065 8.79848 15.7665 8.5 15.3983 8.5C15.0302 8.5 14.7317 8.79848 14.7317 9.16667C14.7317 9.53486 15.0302 9.83334 15.3983 9.83334Z" fill="white"/>
<path d="M12.7317 7.16671C13.0999 7.16671 13.3984 6.86823 13.3984 6.50004C13.3984 6.13185 13.0999 5.83337 12.7317 5.83337C12.3635 5.83337 12.0651 6.13185 12.0651 6.50004C12.0651 6.86823 12.3635 7.16671 12.7317 7.16671Z" fill="white"/>
<path d="M15.3983 4.49983C15.7665 4.49983 16.065 4.20136 16.065 3.83317C16.065 3.46498 15.7665 3.1665 15.3983 3.1665C15.0302 3.1665 14.7317 3.46498 14.7317 3.83317C14.7317 4.20136 15.0302 4.49983 15.3983 4.49983Z" fill="white"/>
<path d="M12.7317 1.83333C13.0999 1.83333 13.3984 1.53486 13.3984 1.16667C13.3984 0.798477 13.0999 0.5 12.7317 0.5C12.3635 0.5 12.0651 0.798477 12.0651 1.16667C12.0651 1.53486 12.3635 1.83333 12.7317 1.83333Z" fill="white"/>
<path d="M9.39836 16.4999C9.76655 16.4999 10.065 16.2015 10.065 15.8333C10.065 15.4651 9.76655 15.1666 9.39836 15.1666C9.03017 15.1666 8.73169 15.4651 8.73169 15.8333C8.73169 16.2015 9.03017 16.4999 9.39836 16.4999Z" fill="white"/>
<path d="M6.73173 13.8333C7.09992 13.8333 7.39839 13.5349 7.39839 13.1667C7.39839 12.7985 7.09992 12.5 6.73173 12.5C6.36354 12.5 6.06506 12.7985 6.06506 13.1667C6.06506 13.5349 6.36354 13.8333 6.73173 13.8333Z" fill="white"/>
<path d="M9.39836 11.1667C9.76655 11.1667 10.065 10.8682 10.065 10.5C10.065 10.1319 9.76655 9.83337 9.39836 9.83337C9.03017 9.83337 8.73169 10.1319 8.73169 10.5C8.73169 10.8682 9.03017 11.1667 9.39836 11.1667Z" fill="white"/>
<path d="M6.73173 8.49985C7.09992 8.49985 7.39839 8.20137 7.39839 7.83317C7.39839 7.46498 7.09992 7.1665 6.73173 7.1665C6.36354 7.1665 6.06506 7.46498 6.06506 7.83317C6.06506 8.20137 6.36354 8.49985 6.73173 8.49985Z" fill="white"/>
</g>
<defs>
<clipPath id="clip0_982_4221">
<rect width="16" height="16" fill="white" transform="translate(0.0650635 0.5)"/>
</clipPath>
</defs>
</svg>
