<svg width="16" height="16" viewBox="0 0 16 16" fill="none" xmlns="http://www.w3.org/2000/svg">
<path d="M15.2327 5.12003L9.23274 0.424697C8.88076 0.148972 8.44653 -0.000854492 7.99941 -0.000854492C7.55228 -0.000854492 7.11806 0.148972 6.76607 0.424697L0.766073 5.12003C0.526602 5.30671 0.333058 5.54575 0.20028 5.81881C0.0675019 6.09188 -0.000983952 6.39173 7.30876e-05 6.69536V16H16.0001V6.69536C16.001 6.39162 15.9323 6.0917 15.7993 5.81863C15.6663 5.54555 15.4725 5.30657 15.2327 5.12003ZM14.6667 14.6667H1.33341V6.69536C1.33308 6.59406 1.35599 6.49402 1.40037 6.40295C1.44475 6.31188 1.50942 6.2322 1.58941 6.17003L7.58941 1.4747C7.70666 1.38301 7.85123 1.33319 8.00007 1.33319C8.14892 1.33319 8.29349 1.38301 8.41074 1.4747L14.4107 6.17003C14.4907 6.2322 14.5554 6.31188 14.5998 6.40295C14.6442 6.49402 14.6671 6.59406 14.6667 6.69536V14.6667ZM8.00007 5.33736C7.34007 5.33724 6.69488 5.53305 6.14627 5.89998C5.59766 6.26691 5.17033 6.78844 4.91843 7.39848C4.66653 8.00853 4.6014 8.67962 4.7313 9.32672C4.86119 9.97382 5.18026 10.5678 5.64807 11.0334L8.00007 13.3334L10.3574 11.028C10.8237 10.5619 11.1413 9.96785 11.2699 9.32117C11.3986 8.67448 11.3326 8.00416 11.0803 7.395C10.8279 6.78584 10.4006 6.2652 9.8523 5.89893C9.30402 5.53267 8.65943 5.33724 8.00007 5.33736ZM9.41941 10.08L8.00007 11.4667L6.58541 10.0854C6.30597 9.80587 6.1156 9.44985 6.03834 9.06225C5.96108 8.67465 6.00039 8.27284 6.15131 7.90757C6.30223 7.54229 6.55799 7.22992 6.8863 7.00989C7.21462 6.78985 7.60076 6.67203 7.99599 6.67128C8.39121 6.67054 8.7778 6.78691 9.10694 7.00571C9.43608 7.2245 9.69301 7.53591 9.84531 7.90062C9.9976 8.26532 10.0384 8.66697 9.96262 9.05486C9.88682 9.44275 9.69779 9.79949 9.41941 10.08ZM8.66674 8.6667C8.66674 8.79855 8.62764 8.92744 8.55439 9.03708C8.48113 9.14671 8.37701 9.23216 8.2552 9.28262C8.13338 9.33307 7.99933 9.34628 7.87001 9.32055C7.74069 9.29483 7.6219 9.23134 7.52867 9.1381C7.43543 9.04487 7.37194 8.92608 7.34622 8.79676C7.32049 8.66744 7.33369 8.53339 7.38415 8.41157C7.43461 8.28976 7.52006 8.18564 7.62969 8.11238C7.73933 8.03913 7.86822 8.00003 8.00007 8.00003C8.17688 8.00003 8.34645 8.07027 8.47148 8.19529C8.5965 8.32032 8.66674 8.48989 8.66674 8.6667Z" fill="#5A6159"/>
</svg>
