<svg width="15" height="14" viewBox="0 0 15 14" fill="none" xmlns="http://www.w3.org/2000/svg">
<path fill-rule="evenodd" clip-rule="evenodd" d="M7.50016 8.16671C8.14449 8.16671 8.66683 7.64437 8.66683 7.00004C8.66683 6.35571 8.14449 5.83337 7.50016 5.83337C6.85583 5.83337 6.3335 6.35571 6.3335 7.00004C6.3335 7.64437 6.85583 8.16671 7.50016 8.16671Z" stroke="#4AD143" stroke-width="1.16667" stroke-linecap="round" stroke-linejoin="round"/>
<path fill-rule="evenodd" clip-rule="evenodd" d="M12.1667 8.16671C12.811 8.16671 13.3333 7.64437 13.3333 7.00004C13.3333 6.35571 12.811 5.83337 12.1667 5.83337C11.5223 5.83337 11 6.35571 11 7.00004C11 7.64437 11.5223 8.16671 12.1667 8.16671Z" stroke="#4AD143" stroke-width="1.16667" stroke-linecap="round" stroke-linejoin="round"/>
<path fill-rule="evenodd" clip-rule="evenodd" d="M2.83317 8.16671C3.4775 8.16671 3.99984 7.64437 3.99984 7.00004C3.99984 6.35571 3.4775 5.83337 2.83317 5.83337C2.18884 5.83337 1.6665 6.35571 1.6665 7.00004C1.6665 7.64437 2.18884 8.16671 2.83317 8.16671Z" stroke="#4AD143" stroke-width="1.16667" stroke-linecap="round" stroke-linejoin="round"/>
</svg>
