<svg width="24" height="24" viewBox="0 0 24 24" fill="none" xmlns="http://www.w3.org/2000/svg">
<g clip-path="url(#clip0_942_2125)">
<path d="M3.99997 6.00013C3.60572 6.00116 3.21518 5.92401 2.85094 5.77313C2.48671 5.62225 2.156 5.40065 1.87797 5.12113L0.292969 3.53613L1.70697 2.12213L3.29297 3.70713C3.48334 3.88916 3.73658 3.99075 3.99997 3.99075C4.26336 3.99075 4.5166 3.88916 4.70697 3.70713L8.29297 0.122131L9.70697 1.53613L6.12097 5.12113C5.84318 5.40071 5.51267 5.62236 5.14858 5.77325C4.7845 5.92414 4.39408 6.00125 3.99997 6.00013ZM24 3.00013H12V5.00013H24V3.00013ZM6.12097 13.1211L9.70697 9.53613L8.29297 8.12213L4.70697 11.7071C4.5166 11.8892 4.26336 11.9908 3.99997 11.9908C3.73658 11.9908 3.48334 11.8892 3.29297 11.7071L1.70697 10.1221L0.292969 11.5361L1.87797 13.1211C2.15655 13.3998 2.48729 13.6208 2.8513 13.7716C3.21531 13.9224 3.60546 14 3.99947 14C4.39348 14 4.78363 13.9224 5.14764 13.7716C5.51165 13.6208 5.84239 13.3998 6.12097 13.1211ZM24 11.0001H12V13.0001H24V11.0001ZM6.12097 21.1211L9.70697 17.5361L8.29297 16.1221L4.70697 19.7071C4.5166 19.8892 4.26336 19.9908 3.99997 19.9908C3.73658 19.9908 3.48334 19.8892 3.29297 19.7071L1.70697 18.1221L0.292969 19.5361L1.87797 21.1211C2.15655 21.3998 2.48729 21.6208 2.8513 21.7716C3.21531 21.9224 3.60546 22 3.99947 22C4.39348 22 4.78363 21.9224 5.14764 21.7716C5.51165 21.6208 5.84239 21.3998 6.12097 21.1211ZM24 19.0001H12V21.0001H24V19.0001Z" fill="#1B211A"/>
</g>
<defs>
<clipPath id="clip0_942_2125">
<rect width="24" height="24" fill="white"/>
</clipPath>
</defs>
</svg>
