<svg width="14" height="16" viewBox="0 0 14 16" fill="none" xmlns="http://www.w3.org/2000/svg">
<path d="M11.6854 2.0963H10.2379V1.44874C10.2379 1.23923 10.0093 1.14401 9.7998 1.14401H8.6761C8.40946 0.382157 7.74284 0.00123321 6.98099 0.00123321C6.22752 -0.0270928 5.5422 0.434909 5.28588 1.14401H4.1812C3.97169 1.14401 3.76218 1.23923 3.76218 1.44874V2.0963H2.31464C1.45684 2.10545 0.755072 2.78214 0.714752 3.63902V14.5525C0.714752 15.3905 1.4766 16 2.31464 16H11.6854C12.5234 16 13.2852 15.3905 13.2852 14.5525V3.63906C13.2449 2.78214 12.5432 2.10545 11.6854 2.0963ZM4.52399 1.90585H5.57154C5.7544 1.88354 5.90128 1.74443 5.93344 1.56303C6.04623 1.07182 6.47717 0.719226 6.98099 0.705956C7.48014 0.721085 7.90459 1.07478 8.00947 1.56303C8.04363 1.7507 8.20021 1.8916 8.3904 1.90585H9.47604V3.42955H4.52399V1.90585ZM12.5234 14.5525C12.5234 14.9715 12.1044 15.2382 11.6854 15.2382H2.31464C1.89562 15.2382 1.4766 14.9715 1.4766 14.5525V3.63906C1.51546 3.20291 1.87681 2.86617 2.31464 2.85818H3.76214V3.82954C3.78227 4.04295 3.9671 4.20259 4.18116 4.19144H9.79977C10.0178 4.20336 10.2084 4.04591 10.2378 3.82954V2.85815H11.6853C12.1231 2.86617 12.4845 3.20287 12.5234 3.63902V14.5525H12.5234Z" fill="white"/>
<path d="M5.53346 8.515C5.3906 8.3644 5.15342 8.35591 5.00016 8.49597L3.78119 9.65776L3.26695 9.12446C3.12408 8.97386 2.8869 8.9654 2.73364 9.10543C2.5861 9.26 2.5861 9.50319 2.73364 9.65776L3.51452 10.4577C3.58211 10.5334 3.67973 10.5752 3.78115 10.572C3.88162 10.5706 3.97747 10.5295 4.04779 10.4577L5.53339 9.0483C5.68067 8.9132 5.69052 8.68426 5.55537 8.53702C5.54845 8.52932 5.54112 8.522 5.53346 8.515Z" fill="white"/>
<path d="M10.9997 9.33374H6.61908C6.4087 9.33374 6.23816 9.50428 6.23816 9.71466C6.23816 9.92505 6.4087 10.0956 6.61908 10.0956H10.9997C11.2101 10.0956 11.3806 9.92505 11.3806 9.71466C11.3806 9.50428 11.2101 9.33374 10.9997 9.33374Z" fill="white"/>
<path d="M5.53346 5.46739C5.3906 5.31679 5.15342 5.3083 5.00016 5.44836L3.78119 6.61017L3.26695 6.07686C3.12408 5.92626 2.8869 5.91777 2.73364 6.05783C2.5861 6.2124 2.5861 6.4556 2.73364 6.61017L3.51452 7.41012C3.58211 7.4858 3.67973 7.52766 3.78115 7.52441C3.88162 7.52299 3.97747 7.4819 4.04779 7.41012L5.53339 6.0007C5.68067 5.8656 5.69052 5.63665 5.55537 5.48941C5.54845 5.48172 5.54112 5.47439 5.53346 5.46739Z" fill="white"/>
<path d="M10.9997 6.28638H6.61908C6.4087 6.28638 6.23816 6.45691 6.23816 6.66729C6.23816 6.87767 6.4087 7.04821 6.61908 7.04821H10.9997C11.2101 7.04821 11.3806 6.87767 11.3806 6.66729C11.3806 6.45691 11.2101 6.28638 10.9997 6.28638Z" fill="white"/>
<path d="M5.53346 11.5621C5.3906 11.4115 5.15342 11.403 5.00016 11.5431L3.78119 12.7049L3.26695 12.1716C3.12408 12.021 2.8869 12.0125 2.73364 12.1525C2.5861 12.3071 2.5861 12.5503 2.73364 12.7049L3.51452 13.5048C3.58211 13.5805 3.67973 13.6224 3.78115 13.6191C3.88162 13.6177 3.97747 13.5766 4.04779 13.5048L5.53339 12.0954C5.68067 11.9603 5.69052 11.7314 5.55537 11.5841C5.54845 11.5765 5.54112 11.5691 5.53346 11.5621Z" fill="white"/>
<path d="M10.9997 12.3813H6.61908C6.4087 12.3813 6.23816 12.5519 6.23816 12.7623C6.23816 12.9727 6.4087 13.1432 6.61908 13.1432H10.9997C11.2101 13.1432 11.3806 12.9727 11.3806 12.7623C11.3806 12.5519 11.2101 12.3813 10.9997 12.3813Z" fill="white"/>
</svg>
