<svg width="20" height="24" viewBox="0 0 20 24" fill="none" xmlns="http://www.w3.org/2000/svg">
<path d="M10.0001 0.00695801C8.02154 0.00718134 6.08752 0.594327 4.44278 1.69409C2.79804 2.79386 1.5165 4.35681 0.760338 6.18517C0.004179 8.01353 -0.192613 10.0251 0.194865 11.9653C0.582344 13.9056 1.53668 15.6873 2.9371 17.0849L7.9621 21.9999H3.0001V23.9999H17.0001V21.9999H12.0381L17.0711 17.0769C18.4693 15.6784 19.4213 13.8966 19.807 11.957C20.1926 10.0174 19.9945 8.00698 19.2377 6.17994C18.4809 4.35291 17.1993 2.79129 15.5551 1.69252C13.9108 0.593758 11.9777 0.00718254 10.0001 0.00695801ZM15.6651 15.6549L10.0001 21.1999L4.3431 15.6629C3.22466 14.5444 2.46289 13.1195 2.15406 11.5682C1.84524 10.0169 2.00321 8.40884 2.60803 6.94729C3.21284 5.48574 4.23734 4.23628 5.55206 3.35682C6.86678 2.47736 8.4127 2.00737 9.99445 2.00625C11.5762 2.00514 13.1228 2.47294 14.4387 3.35054C15.7547 4.22814 16.781 5.47615 17.3878 6.93685C17.9947 8.39754 18.155 10.0054 17.8483 11.5571C17.5417 13.1088 16.782 14.5349 15.6651 15.6549ZM5.0001 6.38195V12.6179L10.0001 15.1179L15.0001 12.6179V6.38195L10.0001 3.88195L5.0001 6.38195ZM13.0001 11.3819L10.0001 12.8819L7.0001 11.3819V7.61795L7.1181 7.55895L10.0001 8.99995L12.8821 7.55895L13.0001 7.61795V11.3819Z" fill="#5A6159"/>
</svg>
