<svg width="24" height="24" viewBox="0 0 24 24" fill="none" xmlns="http://www.w3.org/2000/svg">
<path d="M21.2188 11.5312H23.0625C23.5803 11.5312 24 11.951 24 12.4688C24 12.9865 23.5803 13.4062 23.0625 13.4062H21.2188C20.701 13.4062 20.2813 12.9865 20.2813 12.4688C20.2813 11.951 20.701 11.5312 21.2188 11.5312ZM0.9375 13.4062H2.78123C3.29902 13.4062 3.71873 12.9865 3.71873 12.4688C3.71873 11.951 3.29902 11.5312 2.78123 11.5312H0.9375C0.419719 11.5312 0 11.951 0 12.4688C0 12.9865 0.419719 13.4062 0.9375 13.4062ZM12 4.18748C12.5178 4.18748 12.9375 3.76777 12.9375 3.24998V1.40625C12.9375 0.888469 12.5178 0.46875 12 0.46875C11.4822 0.46875 11.0625 0.888469 11.0625 1.40625V3.24998C11.0625 3.76777 11.4822 4.18748 12 4.18748ZM4.81842 6.61303C5.18447 6.97908 5.77814 6.97917 6.14428 6.61303C6.51042 6.24689 6.51042 5.65327 6.14428 5.28717L4.84059 3.98344C4.47445 3.6173 3.88083 3.6173 3.51473 3.98344C3.14864 4.34958 3.14859 4.9432 3.51473 5.3093L4.81842 6.61303ZM19.1816 6.61303L20.4853 5.3093C20.8515 4.94316 20.8515 4.34953 20.4853 3.98344C20.1192 3.61734 19.5255 3.6173 19.1595 3.98344L17.8557 5.28717C17.4896 5.65331 17.4896 6.24694 17.8557 6.61303C18.2218 6.97908 18.8154 6.97917 19.1816 6.61303ZM24 18C24 18.5178 23.5803 18.9375 23.0625 18.9375C21.9672 18.9375 1.16386 18.9375 0.9375 18.9375C0.419719 18.9375 0 18.5178 0 18C0 17.4822 0.419719 17.0625 0.9375 17.0625H7.43916C6.25673 15.8885 5.52342 14.2627 5.52342 12.4688C5.52342 8.89753 8.42878 5.99217 12 5.99217C15.5712 5.99217 18.4766 8.89753 18.4766 12.4688C18.4766 14.2627 17.7433 15.8885 16.5608 17.0625H23.0625C23.5803 17.0625 24 17.4822 24 18ZM11.7348 17.0625H12.2652C14.6796 16.9246 16.6016 14.917 16.6016 12.4688C16.6016 9.93141 14.5374 7.86717 12 7.86717C9.4627 7.86717 7.39842 9.93141 7.39842 12.4688C7.39842 14.917 9.32044 16.9246 11.7348 17.0625ZM19.375 21.6562H4.62502C4.10723 21.6562 3.68752 22.076 3.68752 22.5938C3.68752 23.1115 4.10723 23.5312 4.62502 23.5312H19.375C19.8928 23.5312 20.3125 23.1115 20.3125 22.5938C20.3125 22.076 19.8928 21.6562 19.375 21.6562Z" fill="#4AD143"/>
</svg>
