<svg width="48" height="48" viewBox="0 0 48 48" fill="none" xmlns="http://www.w3.org/2000/svg">
<g clip-path="url(#clip0_982_3970)">
<path d="M46.5938 0.09375C42.0214 0.09375 38.2433 3.55753 37.7441 7.99884C33.9451 4.731 29.092 2.90625 24 2.90625C20.4952 2.90625 17.1054 3.75928 14.0625 5.38987V1.5C14.0625 0.723375 13.4329 0.09375 12.6562 0.09375C11.8796 0.09375 11.25 0.723375 11.25 1.5V10.4062H8.4375V1.5C8.4375 0.723375 7.80788 0.09375 7.03125 0.09375C6.25462 0.09375 5.625 0.723375 5.625 1.5V10.4062H2.8125V1.5C2.8125 0.723375 2.18288 0.09375 1.40625 0.09375C0.629625 0.09375 0 0.723375 0 1.5V14.625C0 16.4583 1.17572 18.0214 2.8125 18.6019V43.6875C2.8125 46.0137 4.70503 47.9062 7.03125 47.9062C9.35747 47.9062 11.25 46.0137 11.25 43.6875V40.8055C12.5949 41.8284 14.0563 42.6849 15.621 43.363C18.2708 44.5115 21.0898 45.0938 24 45.0938C27.7372 45.0938 31.4095 44.1029 34.6199 42.2284C36.4626 41.1524 38.1282 39.7999 39.5625 38.2325V43.6875C39.5625 46.0137 41.455 47.9062 43.7812 47.9062C46.1075 47.9062 48 46.0137 48 43.6875V1.5C48 0.723375 47.3704 0.09375 46.5938 0.09375ZM40.5 9C40.5 6.12366 42.503 3.7065 45.1875 3.07003V30.0938H40.5V9ZM11.25 13.2188V14.625C11.25 15.4004 10.6192 16.0312 9.84375 16.0312H4.21875C3.44334 16.0312 2.8125 15.4004 2.8125 14.625V13.2188H11.25ZM8.4375 43.6875C8.4375 44.4629 7.80666 45.0938 7.03125 45.0938C6.25584 45.0938 5.625 44.4629 5.625 43.6875V18.8438H8.4375V43.6875ZM24 42.2812C19.187 42.2812 14.6816 40.4447 11.25 37.0987V18.6019C12.8868 18.0214 14.0625 16.4583 14.0625 14.625V8.65359C17.0223 6.73125 20.4426 5.71875 24 5.71875C29.2525 5.71875 34.2123 7.95909 37.6875 11.8831V31.5C37.6875 32.2766 38.3171 32.9062 39.0938 32.9062H39.5625V33.5903C36.2445 38.9598 30.3175 42.2812 24 42.2812ZM45.1875 43.6875C45.1875 44.4629 44.5567 45.0938 43.7812 45.0938C43.0058 45.0938 42.375 44.4629 42.375 43.6875V32.9062H45.1875V43.6875Z" fill="#707D6C"/>
<path d="M24.0293 17.9254L24 17.9546L23.9707 17.9254C21.7291 15.6837 18.0818 15.6837 15.8401 17.9254C14.7543 19.0113 14.1562 20.455 14.1562 21.9907C14.1562 23.5263 14.7543 24.97 15.8402 26.0559L23.0057 33.2214C23.2803 33.496 23.6402 33.6334 24 33.6334C24.3598 33.6334 24.7198 33.4961 24.9943 33.2214L32.1598 26.0559C34.4014 23.8144 34.4014 20.167 32.1598 17.9254C29.9183 15.6838 26.271 15.6836 24.0293 17.9254ZM30.1711 24.0672L24 30.2383L17.8289 24.0672C17.2742 23.5126 16.9688 22.7752 16.9688 21.9908C16.9688 21.2064 17.2742 20.4689 17.8289 19.9142C18.4014 19.3418 19.1534 19.0554 19.9055 19.0554C20.6575 19.0554 21.4095 19.3417 21.982 19.9142L23.0057 20.9379C23.5548 21.487 24.4452 21.487 24.9944 20.9379L26.0181 19.9142C27.1631 18.7692 29.0261 18.7692 30.1712 19.9142C31.3161 21.0592 31.3161 22.9223 30.1711 24.0672Z" fill="#707D6C"/>
</g>
<defs>
<clipPath id="clip0_982_3970">
<rect width="48" height="48" fill="white"/>
</clipPath>
</defs>
</svg>
