<svg width="16" height="17" viewBox="0 0 16 17" fill="none" xmlns="http://www.w3.org/2000/svg">
<g clip-path="url(#clip0_942_640)">
<path d="M8.0213 13.1667C8.28403 13.1671 8.54427 13.1156 8.78704 13.0152C9.02982 12.9147 9.25035 12.7673 9.43596 12.5813L12.0486 9.96667L11.106 9.02667L8.68396 11.4493L8.66663 0.5H7.3333L7.35063 11.4387L4.9373 9.02533L3.99463 9.96667L6.6073 12.5793C6.79269 12.7655 7.01304 12.9133 7.2557 13.0141C7.49835 13.1149 7.75854 13.1667 8.0213 13.1667Z" fill="#1B211A"/>
<path d="M14.6667 11.1666V14.5C14.6667 14.6768 14.5964 14.8463 14.4714 14.9714C14.3464 15.0964 14.1768 15.1666 14 15.1666H2C1.82319 15.1666 1.65362 15.0964 1.5286 14.9714C1.40357 14.8463 1.33333 14.6768 1.33333 14.5V11.1666H0V14.5C0 15.0304 0.210714 15.5391 0.585786 15.9142C0.960859 16.2892 1.46957 16.4999 2 16.4999H14C14.5304 16.4999 15.0391 16.2892 15.4142 15.9142C15.7893 15.5391 16 15.0304 16 14.5V11.1666H14.6667Z" fill="#5A6159"/>
</g>
<defs>
<clipPath id="clip0_942_640">
<rect width="16" height="16" fill="white" transform="translate(0 0.5)"/>
</clipPath>
</defs>
</svg>
