<svg width="56" height="56" viewBox="0 0 56 56" fill="none" xmlns="http://www.w3.org/2000/svg">
<rect width="56" height="56" rx="28" fill="#F1F9F0"/>
<g clip-path="url(#clip0_1104_12974)">
<path d="M39.9998 38.5867L33.7378 32.3247C35.3644 30.3353 36.1642 27.7968 35.9716 25.2343C35.7791 22.6717 34.609 20.2812 32.7034 18.5572C30.7977 16.8332 28.3024 15.9076 25.7334 15.9718C23.1645 16.0361 20.7185 17.0852 18.9014 18.9023C17.0843 20.7194 16.0351 23.1654 15.9709 25.7343C15.9067 28.3033 16.8323 30.7987 18.5563 32.7043C20.2803 34.6099 22.6708 35.78 25.2333 35.9725C27.7959 36.1651 30.3344 35.3653 32.3238 33.7387L38.5858 40.0007L39.9998 38.5867ZM25.9998 34.0007C24.4175 34.0007 22.8708 33.5315 21.5552 32.6525C20.2396 31.7734 19.2142 30.524 18.6087 29.0622C18.0032 27.6004 17.8448 25.9918 18.1535 24.44C18.4622 22.8881 19.2241 21.4627 20.3429 20.3438C21.4617 19.225 22.8872 18.4631 24.4391 18.1544C25.9909 17.8457 27.5994 18.0042 29.0612 18.6097C30.5231 19.2152 31.7725 20.2405 32.6515 21.5561C33.5306 22.8717 33.9998 24.4184 33.9998 26.0007C33.9974 28.1217 33.1538 30.1551 31.654 31.6549C30.1542 33.1547 28.1208 33.9983 25.9998 34.0007Z" fill="#4AD143"/>
</g>
<defs>
<clipPath id="clip0_1104_12974">
<rect width="24" height="24" fill="white" transform="translate(16 16)"/>
</clipPath>
</defs>
</svg>
