<svg width="48" height="48" viewBox="0 0 48 48" fill="none" xmlns="http://www.w3.org/2000/svg">
<path d="M32.4049 22.5746C32.4016 22.5746 32.3984 22.5746 32.395 22.5746H28.3753V18.545C28.3807 17.7322 27.7263 17.0689 26.9135 17.0635C26.9102 17.0635 26.9069 17.0635 26.9037 17.0635H21.0963C20.2835 17.0635 19.6246 17.7224 19.6246 18.5351V22.5647H15.6049C14.7922 22.5593 14.1288 23.2136 14.1234 24.0263C14.1234 24.033 14.1234 24.0395 14.1234 24.0462V29.8437C14.1234 30.6564 14.7823 31.3153 15.595 31.3153H19.6246V35.3351C19.6192 36.1478 20.2737 36.8111 21.0864 36.8166C21.0897 36.8166 21.093 36.8166 21.0963 36.8166H26.8938C27.7065 36.8166 28.3654 36.1577 28.3654 35.345V31.3153H32.395C33.2077 31.3208 33.8711 30.6663 33.8765 29.8536C33.8765 29.8503 33.8765 29.8469 33.8765 29.8437V24.0462C33.8765 23.2335 33.2177 22.5746 32.4049 22.5746ZM31.9012 29.34H27.3876C26.8422 29.34 26.4 29.7822 26.4 30.3277V34.8413H21.6V30.3277C21.6 29.7822 21.1577 29.34 20.6123 29.34H16.0987V24.5499H20.6123C21.1577 24.5499 21.6 24.1077 21.6 23.5622V19.0388H26.3901V23.5524C26.3901 24.0978 26.8323 24.54 27.3777 24.54H31.9012V29.34Z" fill="#727970"/>
<path d="M41.1852 9.67589H33.0469V6.19935C33.0981 4.61293 31.8536 3.28527 30.2672 3.23404C30.1863 3.23145 30.1054 3.23219 30.0247 3.23639H17.9753C16.3901 3.15379 15.0381 4.37182 14.9554 5.95688C14.9512 6.03762 14.9504 6.11848 14.9531 6.19935V9.65614H6.81482C3.67407 9.65614 0 11.4438 0 16.471V37.9524C0 42.9796 3.67407 44.7672 6.81482 44.7672H41.1852C44.3259 44.7672 48 42.9796 48 37.9524V16.4907C48 11.4635 44.3358 9.67589 41.1852 9.67589ZM16.9284 6.19935C16.9284 5.91293 16.9284 5.14256 17.9852 5.14256H30.0247C31.0815 5.14256 31.0815 5.90305 31.0815 6.19935V9.65614H16.9284V6.19935ZM46.0247 37.9524C46.0247 42.3179 42.6469 42.7919 41.1852 42.7919H6.81482C5.36296 42.7919 1.97531 42.3179 1.97531 37.9524V16.4907C1.97531 12.1253 5.35309 11.6512 6.81482 11.6512H41.1852C42.637 11.6512 46.0247 12.1253 46.0247 16.4907V37.9524Z" fill="#727970"/>
</svg>
