<svg width="56" height="56" viewBox="0 0 56 56" fill="none" xmlns="http://www.w3.org/2000/svg">
<rect width="56" height="56" rx="28" fill="#F1F9F0"/>
<path d="M29.2779 39.979L25.0779 31.739L19.9999 36.216V18.019C19.9999 17.6463 20.104 17.281 20.3005 16.9643C20.4971 16.6476 20.7782 16.3922 21.1122 16.2267C21.4461 16.0613 21.8197 15.9925 22.1907 16.028C22.5617 16.0636 22.9154 16.2021 23.2119 16.428L37.1169 28.436L30.4999 29.17L34.6449 37.3L29.2779 39.979ZM25.6839 28.534L30.1579 37.3L31.9469 36.406L27.3999 27.5L32.3379 26.953L21.9519 17.98L21.9939 31.79L25.6839 28.534Z" fill="#4AD143"/>
</svg>
