<svg width="160" height="160" viewBox="0 0 160 160" fill="none" xmlns="http://www.w3.org/2000/svg">
<g clip-path="url(#clip0_1705_42175)">
<path d="M13.2063 31.7837C12.765 31.8093 12.331 31.6626 11.9958 31.3745C11.3347 30.7095 11.3347 29.6355 11.9958 28.9705L26.471 14.4952C27.1586 13.8518 28.2375 13.8876 28.8808 14.5752C29.4626 15.1969 29.4965 16.1526 28.9602 16.814L14.3998 31.3745C14.0689 31.6585 13.6418 31.8049 13.2063 31.7837Z" fill="#DDE1DD"/>
<path d="M27.6645 31.7837C27.2172 31.7818 26.7885 31.6043 26.471 31.2893L11.9957 16.814C11.3833 16.0988 11.4665 15.0225 12.1817 14.41C12.8201 13.8633 13.7615 13.8633 14.3997 14.41L28.9602 28.8852C29.6476 29.5288 29.6832 30.6077 29.0396 31.2951C29.014 31.3225 28.9876 31.3489 28.9602 31.3745C28.6037 31.6846 28.1345 31.8327 27.6645 31.7837Z" fill="#DDE1DD"/>
<path d="M136.974 145.779C136.334 145.817 135.705 145.604 135.219 145.186C134.26 144.222 134.26 142.665 135.219 141.701L156.202 120.718C157.199 119.785 158.763 119.837 159.696 120.834C160.539 121.735 160.588 123.12 159.811 124.079L138.704 145.186C138.224 145.598 137.605 145.81 136.974 145.779Z" fill="#DDE1DD"/>
<path d="M157.933 145.78C157.284 145.777 156.663 145.519 156.202 145.063L135.219 124.079C134.331 123.042 134.452 121.482 135.489 120.594C136.414 119.802 137.779 119.802 138.704 120.594L159.811 141.578C160.807 142.511 160.859 144.075 159.926 145.071C159.889 145.111 159.851 145.149 159.811 145.186C159.294 145.636 158.614 145.851 157.933 145.78Z" fill="#DDE1DD"/>
<path d="M24.0555 42.7897C23.9119 42.7981 23.7706 42.7503 23.6614 42.6565C23.4462 42.44 23.4462 42.0903 23.6614 41.8738L28.3742 37.161C28.598 36.9515 28.9493 36.9632 29.1588 37.187C29.3482 37.3895 29.3592 37.7006 29.1846 37.916L24.4441 42.6565C24.3364 42.7489 24.1973 42.7966 24.0555 42.7897Z" fill="#DDE1DD"/>
<path d="M28.7628 42.7899C28.6172 42.7893 28.4776 42.7315 28.3742 42.629L23.6614 37.9162C23.462 37.6833 23.4891 37.3329 23.722 37.1335C23.9298 36.9555 24.2363 36.9555 24.4441 37.1335L29.1846 41.8463C29.4084 42.0558 29.42 42.4071 29.2105 42.6309C29.2022 42.6398 29.1935 42.6484 29.1846 42.6567C29.0686 42.7577 28.9158 42.8059 28.7628 42.7899Z" fill="#DDE1DD"/>
<path d="M118.056 132.79C117.912 132.798 117.771 132.75 117.661 132.656C117.446 132.44 117.446 132.09 117.661 131.874L122.374 127.161C122.598 126.952 122.949 126.963 123.159 127.187C123.348 127.389 123.359 127.701 123.185 127.916L118.444 132.656C118.336 132.749 118.197 132.797 118.056 132.79Z" fill="#DDE1DD"/>
<path d="M122.763 132.79C122.617 132.789 122.478 132.732 122.374 132.629L117.661 127.916C117.462 127.683 117.489 127.333 117.722 127.133C117.93 126.956 118.236 126.956 118.444 127.133L123.185 131.846C123.408 132.056 123.42 132.407 123.21 132.631C123.202 132.64 123.194 132.648 123.185 132.657C123.069 132.758 122.916 132.806 122.763 132.79Z" fill="#DDE1DD"/>
<path d="M139.056 106.79C138.912 106.798 138.771 106.75 138.661 106.656C138.446 106.44 138.446 106.09 138.661 105.874L143.374 101.161C143.598 100.952 143.949 100.963 144.159 101.187C144.348 101.389 144.359 101.701 144.185 101.916L139.444 106.656C139.336 106.749 139.197 106.797 139.056 106.79Z" fill="#DDE1DD"/>
<path d="M143.763 106.79C143.617 106.789 143.478 106.732 143.374 106.629L138.661 101.916C138.462 101.683 138.489 101.333 138.722 101.133C138.93 100.956 139.236 100.956 139.444 101.133L144.185 105.846C144.408 106.056 144.42 106.407 144.21 106.631C144.202 106.64 144.194 106.648 144.185 106.657C144.069 106.758 143.916 106.806 143.763 106.79Z" fill="#DDE1DD"/>
<path d="M14.8271 114.832C14.4839 114.852 14.1463 114.738 13.8856 114.514C13.3715 113.997 13.3715 113.161 13.8856 112.644L25.1441 101.386C25.6789 100.885 26.5181 100.913 27.0185 101.448C27.471 101.931 27.4973 102.675 27.0802 103.189L15.7554 114.514C15.498 114.735 15.1659 114.849 14.8271 114.832Z" fill="#DDE1DD"/>
<path d="M26.0722 114.832C25.7243 114.83 25.3909 114.692 25.1439 114.447L13.8853 103.189C13.409 102.632 13.4737 101.795 14.03 101.319C14.5265 100.894 15.2587 100.894 15.7551 101.319L27.08 112.577C27.6146 113.078 27.6422 113.917 27.1417 114.452C27.1218 114.473 27.1012 114.494 27.08 114.514C26.8027 114.755 26.4377 114.87 26.0722 114.832Z" fill="#DDE1DD"/>
<path d="M28.0555 130.836C27.9119 130.844 27.7706 130.796 27.6614 130.702C27.4462 130.486 27.4462 130.136 27.6614 129.92L32.3742 125.207C32.598 124.997 32.9493 125.009 33.1588 125.233C33.3482 125.435 33.3592 125.747 33.1846 125.962L28.4441 130.702C28.3364 130.795 28.1973 130.843 28.0555 130.836Z" fill="#DDE1DD"/>
<path d="M32.7628 130.836C32.6172 130.835 32.4776 130.777 32.3742 130.675L27.6614 125.962C27.462 125.729 27.4891 125.379 27.722 125.179C27.9298 125.001 28.2363 125.001 28.4441 125.179L33.1846 129.892C33.4084 130.102 33.42 130.453 33.2105 130.677C33.2022 130.686 33.1935 130.694 33.1846 130.703C33.0686 130.804 32.9158 130.852 32.7628 130.836Z" fill="#DDE1DD"/>
<path d="M52.0002 40C45.3938 40 40.0002 45.3935 40.0002 52C40.0002 58.6065 45.3938 64 52.0002 64H115.2V115.2H52.0002C47.9699 115.2 44.8002 112.03 44.8002 108V66.4C44.8047 66.082 44.746 65.7662 44.6274 65.4711C44.5088 65.176 44.3327 64.9074 44.1094 64.6809C43.8861 64.4544 43.62 64.2745 43.3266 64.1518C43.0332 64.029 42.7183 63.9658 42.4002 63.9658C42.0822 63.9658 41.7673 64.029 41.4739 64.1518C41.1805 64.2745 40.9144 64.4544 40.6911 64.6809C40.4677 64.9074 40.2917 65.176 40.1731 65.4711C40.0545 65.7662 39.9957 66.082 40.0002 66.4V108C40.0002 114.606 45.3938 120 52.0002 120H117.6C118.237 120 118.847 119.747 119.297 119.297C119.747 118.847 120 118.237 120 117.6V61.6C120 60.9635 119.747 60.3531 119.297 59.903C118.847 59.4529 118.237 59.2001 117.6 59.2H52.0002C47.9699 59.2 44.8002 56.0303 44.8002 52C44.8002 47.9697 47.9699 44.8 52.0002 44.8H105.6V53.6C105.596 53.918 105.654 54.2338 105.773 54.5289C105.892 54.824 106.068 55.0926 106.291 55.3191C106.514 55.5456 106.78 55.7255 107.074 55.8482C107.367 55.971 107.682 56.0342 108 56.0342C108.318 56.0342 108.633 55.971 108.927 55.8482C109.22 55.7255 109.486 55.5456 109.709 55.3191C109.933 55.0926 110.109 54.824 110.227 54.5289C110.346 54.2338 110.405 53.918 110.4 53.6V42.4C110.4 41.7635 110.147 41.1531 109.697 40.703C109.247 40.2529 108.637 40.0001 108 40H52.0002Z" fill="#B5BDB4"/>
<path d="M80.0002 96C75.0776 96 70.5032 97.5981 66.8033 100.3C66.536 100.481 66.3078 100.713 66.1324 100.984C65.9569 101.255 65.8379 101.558 65.7823 101.876C65.7267 102.193 65.7358 102.519 65.8089 102.833C65.882 103.147 66.0177 103.444 66.2078 103.704C66.398 103.965 66.6388 104.184 66.9157 104.35C67.1926 104.515 67.5 104.623 67.8196 104.667C68.1392 104.711 68.4643 104.69 68.7756 104.605C69.0869 104.521 69.378 104.375 69.6315 104.175C72.5409 102.05 76.1122 100.8 80.0002 100.8C83.8883 100.8 87.4595 102.05 90.369 104.175C90.6224 104.375 90.9135 104.521 91.2248 104.605C91.5361 104.69 91.8612 104.711 92.1808 104.667C92.5004 104.623 92.8078 104.515 93.0847 104.35C93.3617 104.184 93.6024 103.965 93.7926 103.704C93.9827 103.444 94.1184 103.147 94.1915 102.833C94.2647 102.519 94.2737 102.193 94.2181 101.876C94.1625 101.558 94.0435 101.255 93.868 100.984C93.6926 100.713 93.4644 100.481 93.1971 100.3C89.4972 97.5981 84.9229 96 80.0002 96Z" fill="#B5BDB4"/>
<path d="M88.2241 78.6765C87.7815 79.1332 87.5382 79.747 87.5477 80.383C87.5572 81.019 87.8188 81.6252 88.275 82.0684L89.4063 83.1998L88.275 84.3312C88.0469 84.5529 87.8652 84.8177 87.7404 85.1102C87.6155 85.4028 87.5501 85.7172 87.5478 86.0353C87.5456 86.3533 87.6066 86.6686 87.7272 86.9629C87.8479 87.2572 88.0259 87.5245 88.2508 87.7494C88.4757 87.9744 88.7431 88.1523 89.0373 88.273C89.3316 88.3937 89.6469 88.4547 89.965 88.4524C90.283 88.4502 90.5975 88.3847 90.89 88.2599C91.1826 88.1351 91.4474 87.9533 91.6691 87.7253L92.8004 86.5939L93.9318 87.7253C94.1535 87.9533 94.4183 88.1351 94.7109 88.2599C95.0034 88.3847 95.3179 88.4502 95.6359 88.4524C95.954 88.4547 96.2693 88.3937 96.5636 88.273C96.8578 88.1523 97.1252 87.9744 97.3501 87.7494C97.575 87.5245 97.753 87.2572 97.8736 86.9629C97.9943 86.6686 98.0553 86.3533 98.0531 86.0353C98.0508 85.7172 97.9854 85.4028 97.8605 85.1102C97.7357 84.8177 97.554 84.5529 97.3259 84.3312L96.1946 83.1998L97.3259 82.0684C97.554 81.8467 97.7357 81.5819 97.8605 81.2894C97.9854 80.9968 98.0508 80.6824 98.053 80.3643C98.0553 80.0463 97.9943 79.731 97.8736 79.4367C97.753 79.1424 97.575 78.875 97.3501 78.6501C97.1252 78.4252 96.8578 78.2473 96.5636 78.1266C96.2693 78.0059 95.954 77.9449 95.6359 77.9472C95.3179 77.9494 95.0034 78.0149 94.7109 78.1397C94.4183 78.2645 94.1535 78.4463 93.9318 78.6743L92.8004 79.8057L91.6691 78.6743C91.4452 78.4439 91.1773 78.2608 90.8814 78.1358C90.5854 78.0109 90.2674 77.9466 89.9461 77.9468C89.6249 77.947 89.3069 78.0117 89.0111 78.137C88.7153 78.2624 88.4477 78.4458 88.2241 78.6765Z" fill="#B5BDB4"/>
<path d="M62.6242 78.6765C62.1815 79.1332 61.9382 79.747 61.9477 80.383C61.9572 81.019 62.2188 81.6252 62.675 82.0684L63.8064 83.1998L62.675 84.3312C62.4469 84.5529 62.2652 84.8177 62.1404 85.1102C62.0155 85.4028 61.9501 85.7172 61.9479 86.0353C61.9456 86.3533 62.0066 86.6686 62.1273 86.9629C62.2479 87.2572 62.4259 87.5245 62.6508 87.7494C62.8757 87.9744 63.1431 88.1523 63.4373 88.273C63.7316 88.3937 64.047 88.4547 64.365 88.4524C64.6831 88.4502 64.9975 88.3847 65.29 88.2599C65.5826 88.1351 65.8474 87.9533 66.0691 87.7253L67.2005 86.5939L68.3318 87.7253C68.5535 87.9533 68.8184 88.1351 69.1109 88.2599C69.4034 88.3847 69.7179 88.4502 70.0359 88.4524C70.354 88.4547 70.6693 88.3937 70.9636 88.273C71.2579 88.1523 71.5252 87.9744 71.7501 87.7494C71.975 87.5245 72.153 87.2572 72.2737 86.9629C72.3943 86.6686 72.4553 86.3533 72.4531 86.0353C72.4508 85.7172 72.3854 85.4028 72.2606 85.1102C72.1357 84.8177 71.954 84.5529 71.7259 84.3312L70.5946 83.1998L71.7259 82.0684C71.954 81.8467 72.1357 81.5819 72.2606 81.2894C72.3854 80.9968 72.4508 80.6824 72.4531 80.3643C72.4553 80.0463 72.3943 79.731 72.2737 79.4367C72.153 79.1424 71.975 78.875 71.7501 78.6501C71.5252 78.4252 71.2579 78.2473 70.9636 78.1266C70.6693 78.0059 70.354 77.9449 70.0359 77.9472C69.7179 77.9494 69.4034 78.0149 69.1109 78.1397C68.8184 78.2645 68.5535 78.4463 68.3318 78.6743L67.2005 79.8057L66.0691 78.6743C65.8452 78.4439 65.5774 78.2608 65.2814 78.1358C64.9854 78.0109 64.6674 77.9466 64.3462 77.9468C64.0249 77.947 63.707 78.0117 63.4112 78.137C63.1154 78.2624 62.8477 78.4458 62.6242 78.6765Z" fill="#B5BDB4"/>
</g>
<defs>
<clipPath id="clip0_1705_42175">
<rect width="160" height="160" fill="white"/>
</clipPath>
</defs>
</svg>
