<svg width="16" height="17" viewBox="0 0 16 17" fill="none" xmlns="http://www.w3.org/2000/svg">
<path d="M8 0.5C3.57841 0.5 0 4.078 0 8.5C0 12.9215 3.578 16.5 8 16.5C12.4216 16.5 16 12.922 16 8.5C16 4.07841 12.422 0.5 8 0.5ZM7.76328 12.2443C7.31047 12.2443 6.96297 11.8652 6.96297 11.4335C6.96297 10.9912 7.321 10.6227 7.76328 10.6227C8.20559 10.6227 8.57409 10.9912 8.57409 11.4335C8.57409 11.8652 8.21606 12.2443 7.76328 12.2443ZM8.96372 8.148C8.38456 8.60081 8.374 8.91672 8.374 9.46428C8.374 9.66441 8.26869 9.89606 7.75272 9.89606C7.32094 9.89606 7.17356 9.73809 7.17356 9.19053C7.17356 8.28491 7.57372 7.85316 7.87909 7.58991C8.22659 7.29503 8.81631 6.96863 8.81631 6.4C8.81631 5.91556 8.39509 5.68391 7.86856 5.68391C6.79447 5.68391 7.02616 6.49478 6.45747 6.49478C6.17316 6.49478 5.82566 6.30519 5.82566 5.89453C5.82566 5.32591 6.47853 4.48344 7.90016 4.48344C9.24803 4.48344 10.1431 5.23112 10.1431 6.22097C10.1431 7.21081 9.24803 7.92687 8.96372 8.148Z" fill="#F2994A"/>
</svg>
