<svg width="32" height="32" viewBox="0 0 32 32" fill="none" xmlns="http://www.w3.org/2000/svg">
<g clip-path="url(#clip0_982_4359)">
<path d="M16 32C24.8366 32 32 24.8366 32 16C32 7.16344 24.8366 0 16 0C7.16344 0 0 7.16344 0 16C0 24.8366 7.16344 32 16 32Z" fill="#0068FF"/>
<path fill-rule="evenodd" clip-rule="evenodd" d="M17.49 14.8585V14.4314H18.8367V20.4373H18.0663C17.7491 20.4373 17.4917 20.194 17.49 19.8931C17.4898 19.8932 17.4896 19.8934 17.4894 19.8935C16.947 20.2704 16.2765 20.4941 15.5522 20.4941C13.7385 20.4941 12.2678 19.0978 12.2678 17.3758C12.2678 15.6538 13.7385 14.2575 15.5522 14.2575C16.2765 14.2575 16.947 14.4812 17.4894 14.858C17.4896 14.8582 17.4898 14.8583 17.49 14.8585ZM11.9188 12.5V12.6947C11.9188 13.0579 11.8678 13.3544 11.6193 13.7023L11.5893 13.7349C11.5351 13.7933 11.4078 13.9305 11.3472 14.0049L7.02396 19.1601H11.9188V19.8899C11.9188 20.1923 11.6606 20.4373 11.3421 20.4373H5V20.0932C5 19.6717 5.11022 19.4838 5.24954 19.2878L9.8582 13.8685H5.19213V12.5H11.9188ZM20.4701 20.4373C20.2052 20.4373 19.9898 20.2328 19.9898 19.9815V12.5H21.4314V20.4373H20.4701ZM25.6934 14.2199C27.5199 14.2199 29 15.6267 29 17.3592C29 19.0932 27.5199 20.5 25.6934 20.5C23.867 20.5 22.3868 19.0932 22.3868 17.3592C22.3868 15.6267 23.867 14.2199 25.6934 14.2199ZM15.5522 19.2104C16.6197 19.2104 17.4846 18.3892 17.4846 17.3758C17.4846 16.3639 16.6197 15.5427 15.5522 15.5427C14.4848 15.5427 13.6198 16.3639 13.6198 17.3758C13.6198 18.3892 14.4848 19.2104 15.5522 19.2104ZM25.6934 19.2073C26.7671 19.2073 27.6385 18.3801 27.6385 17.3592C27.6385 16.3398 26.7671 15.5127 25.6934 15.5127C24.6181 15.5127 23.7484 16.3398 23.7484 17.3592C23.7484 18.3801 24.6181 19.2073 25.6934 19.2073Z" fill="white"/>
</g>
<defs>
<clipPath id="clip0_982_4359">
<rect width="32" height="32" fill="white"/>
</clipPath>
</defs>
</svg>
