<svg width="25" height="24" viewBox="0 0 25 24" fill="none" xmlns="http://www.w3.org/2000/svg">
<path d="M22.3333 0H13.3333V2H20.9193L0.333252 22.586L1.74725 24L22.3333 3.414V11H24.3333V2C24.3333 1.46957 24.1225 0.960859 23.7475 0.585786C23.3724 0.210714 22.8637 0 22.3333 0V0Z" fill="#5A6159"/>
<path d="M6.3335 9.99964C7.12462 9.99964 7.89798 9.76504 8.55578 9.32551C9.21357 8.88599 9.72626 8.26127 10.029 7.53037C10.3318 6.79946 10.411 5.9952 10.2566 5.21927C10.1023 4.44335 9.72133 3.73062 9.16192 3.17121C8.60251 2.6118 7.88978 2.23084 7.11386 2.07649C6.33793 1.92215 5.53367 2.00137 4.80276 2.30412C4.07186 2.60687 3.44714 3.11956 3.00762 3.77735C2.56809 4.43515 2.3335 5.20851 2.3335 5.99964C2.3335 7.0605 2.75492 8.07792 3.50507 8.82806C4.25521 9.57821 5.27263 9.99964 6.3335 9.99964ZM6.3335 3.99964C6.72906 3.99964 7.11574 4.11693 7.44464 4.3367C7.77353 4.55646 8.02988 4.86882 8.18126 5.23427C8.33263 5.59972 8.37224 6.00185 8.29507 6.38982C8.2179 6.77778 8.02741 7.13414 7.74771 7.41385C7.468 7.69355 7.11164 7.88404 6.72368 7.96121C6.33571 8.03838 5.93358 7.99877 5.56813 7.84739C5.20268 7.69602 4.89032 7.43967 4.67056 7.11078C4.45079 6.78188 4.3335 6.3952 4.3335 5.99964C4.3335 5.4692 4.54421 4.96049 4.91928 4.58542C5.29436 4.21035 5.80306 3.99964 6.3335 3.99964Z" fill="#5A6159"/>
<path d="M18.3333 13.9997C17.5421 13.9997 16.7688 14.2343 16.111 14.6738C15.4532 15.1133 14.9405 15.7381 14.6377 16.469C14.335 17.1999 14.2558 18.0041 14.4101 18.7801C14.5645 19.556 14.9454 20.2687 15.5048 20.8281C16.0642 21.3875 16.777 21.7685 17.5529 21.9228C18.3288 22.0772 19.1331 21.998 19.864 21.6952C20.5949 21.3925 21.2196 20.8798 21.6591 20.222C22.0987 19.5642 22.3333 18.7908 22.3333 17.9997C22.3333 16.9388 21.9118 15.9214 21.1617 15.1713C20.4115 14.4211 19.3941 13.9997 18.3333 13.9997ZM18.3333 19.9997C17.9377 19.9997 17.551 19.8824 17.2221 19.6626C16.8932 19.4429 16.6369 19.1305 16.4855 18.7651C16.3341 18.3996 16.2945 17.9975 16.3717 17.6095C16.4489 17.2216 16.6393 16.8652 16.919 16.5855C17.1987 16.3058 17.5551 16.1153 17.9431 16.0381C18.331 15.961 18.7332 16.0006 19.0986 16.1519C19.4641 16.3033 19.7764 16.5597 19.9962 16.8886C20.216 17.2175 20.3333 17.6041 20.3333 17.9997C20.3333 18.5301 20.1225 19.0388 19.7475 19.4139C19.3724 19.789 18.8637 19.9997 18.3333 19.9997Z" fill="#5A6159"/>
</svg>
