<svg width="16" height="16" viewBox="0 0 16 16" fill="none" xmlns="http://www.w3.org/2000/svg">
<path d="M15.042 0.958232C13.4593 -0.624433 11.096 -0.238433 7.99997 2.09156C4.90464 -0.238433 2.54197 -0.625099 0.957971 0.958232C-0.626029 2.54156 -0.238695 4.90423 2.0913 8.00022C-0.238695 11.0956 -0.625362 13.4589 0.957971 15.0422C1.25483 15.35 1.61157 15.5938 2.0062 15.7586C2.40084 15.9233 2.82502 16.0056 3.25264 16.0002C4.56664 16.0002 6.15331 15.2989 7.99997 13.9096C9.84597 15.2989 11.4326 16.0002 12.7473 16.0002C13.1749 16.0056 13.5991 15.9233 13.9937 15.7586C14.3884 15.5938 14.7451 15.35 15.042 15.0422C16.6253 13.4589 16.242 11.0962 13.9086 8.00022C16.2386 4.90423 16.6253 2.54156 15.042 0.958232ZM12.7233 1.35223C12.9781 1.34456 13.2317 1.38904 13.4687 1.48293C13.7057 1.57682 13.9209 1.71814 14.1013 1.89823C15.2653 3.0629 14.4053 5.04023 13.0426 6.92423C12.484 6.26556 11.8546 5.58089 11.1373 4.86289C10.42 4.1449 9.7333 3.51556 9.07464 2.95623C10.34 2.0409 11.648 1.35223 12.7233 1.35223ZM12.2073 8.00022C11.5333 8.81356 10.8193 9.57422 10.1966 10.2002C9.57397 10.8262 8.8133 11.5336 7.99997 12.2076C7.18664 11.5336 6.42597 10.8196 5.8033 10.2002C5.18064 9.58089 4.46664 8.81356 3.79264 8.00022C4.46664 7.18689 5.18064 6.42556 5.8033 5.80356C6.42597 5.18156 7.18664 4.4669 7.99997 3.79223C8.8133 4.46556 9.57397 5.18089 10.2 5.80356C10.826 6.42623 11.5333 7.18689 12.2073 8.00022ZM1.89864 1.8989C2.07882 1.7185 2.29404 1.57692 2.53104 1.4829C2.76804 1.38888 3.02179 1.34441 3.27664 1.35223C4.35197 1.35223 5.65997 2.0409 6.9253 2.95623C6.26664 3.51556 5.58131 4.1449 4.86264 4.86289C4.14397 5.58089 3.51597 6.26289 2.95664 6.92423C1.59464 5.04023 0.733305 3.0629 1.89864 1.8989ZM1.89864 14.0989C0.734638 12.9349 1.59464 10.9569 2.95664 9.07356C3.51597 9.73222 4.14531 10.4169 4.86264 11.1349C5.57997 11.8529 6.26264 12.4836 6.92197 13.0422C5.03864 14.4062 3.0613 15.2669 1.89864 14.1016V14.0989ZM14.0986 14.0989C12.9353 15.2615 10.9586 14.4035 9.0753 13.0422C9.73264 12.4836 10.418 11.8509 11.1346 11.1349C11.8513 10.4189 12.4813 9.73489 13.04 9.07356C14.4053 10.9602 15.2666 12.9376 14.1013 14.1016L14.0986 14.0989Z" fill="#5A6159"/>
</svg>
