<svg width="24" height="24" viewBox="0 0 24 24" fill="none" xmlns="http://www.w3.org/2000/svg">
<g clip-path="url(#clip0_1705_37821)">
<path d="M12 2C13.3295 2.00252 14.6452 2.26901 15.8708 2.78399C17.0965 3.29898 18.2077 4.05221 19.14 5H15V7H20.143C20.6353 6.99947 21.1074 6.80365 21.4555 6.45551C21.8037 6.10737 21.9995 5.63534 22 5.143V0H20V3.06C18.2736 1.5159 16.1373 0.504399 13.8488 0.147551C11.5603 -0.209296 9.21748 0.103762 7.10297 1.04895C4.98846 1.99413 3.19266 3.53106 1.93229 5.47425C0.671915 7.41744 0.000824399 9.68385 0 12H2C2.00291 9.34873 3.05742 6.80688 4.93215 4.93215C6.80688 3.05742 9.34873 2.00291 12 2Z" fill="white"/>
<path d="M22 12C21.9997 13.986 21.4081 15.927 20.3005 17.5755C19.1929 19.224 17.6195 20.5054 15.7809 21.2562C13.9422 22.0071 11.9217 22.1936 9.97673 21.7917C8.03177 21.3899 6.25051 20.418 4.86 19H9V17H3.857C3.36466 17.0005 2.89263 17.1963 2.54449 17.5445C2.19635 17.8926 2.00053 18.3647 2 18.857V24H4V20.94C5.72635 22.4841 7.86267 23.4956 10.1512 23.8524C12.4397 24.2093 14.7825 23.8962 16.897 22.9511C19.0115 22.0059 20.8073 20.4689 22.0677 18.5258C23.3281 16.5826 23.9992 14.3161 24 12H22Z" fill="white"/>
</g>
<defs>
<clipPath id="clip0_1705_37821">
<rect width="24" height="24" fill="white"/>
</clipPath>
</defs>
</svg>
