<svg width="56" height="56" viewBox="0 0 56 56" fill="none" xmlns="http://www.w3.org/2000/svg">
<rect width="56" height="56" rx="28" fill="#F1F9F0"/>
<g clip-path="url(#clip0_1104_12969)">
<path d="M26.0002 21.9996C26.8527 22.0033 27.6815 22.2798 28.3653 22.7887C29.0491 23.2976 29.552 24.0122 29.8002 24.8276L31.9772 25.6186C31.9053 24.466 31.5023 23.3586 30.8165 22.4294C30.1308 21.5002 29.1914 20.7887 28.1112 20.3802C27.031 19.9717 25.8558 19.8836 24.7268 20.1265C23.5978 20.3694 22.5629 20.933 21.7463 21.7496C20.9296 22.5663 20.3661 23.6012 20.1231 24.7302C19.8802 25.8592 19.9683 27.0344 20.3768 28.1146C20.7853 29.1948 21.4968 30.1341 22.426 30.8199C23.3552 31.5057 24.4626 31.9087 25.6152 31.9806L24.8282 29.7996C23.9153 29.519 23.1334 28.9201 22.6247 28.1118C22.116 27.3035 21.9143 26.3395 22.0562 25.3951C22.1981 24.4506 22.6742 23.5884 23.398 22.9653C24.1218 22.3422 25.0452 21.9996 26.0002 21.9996Z" fill="#4AD143"/>
<path d="M26.0001 34C24.4178 34 22.8711 33.5308 21.5555 32.6518C20.2399 31.7727 19.2145 30.5233 18.609 29.0615C18.0035 27.5997 17.8451 25.9912 18.1538 24.4393C18.4625 22.8875 19.2244 21.462 20.3432 20.3432C21.462 19.2244 22.8875 18.4624 24.4393 18.1537C25.9912 17.8451 27.5997 18.0035 29.0615 18.609C30.5233 19.2145 31.7728 20.2399 32.6518 21.5555C33.5309 22.8711 34.0001 24.4178 34.0001 26C34.0001 26.117 33.9871 26.231 33.9821 26.347L35.9421 27.06C36.1648 24.9991 35.7425 22.9199 34.7336 21.1091C33.7247 19.2983 32.1789 17.8451 30.3092 16.95C28.4396 16.0549 26.3382 15.7619 24.295 16.1114C22.2518 16.461 20.3674 17.4359 18.9016 18.9016C17.4359 20.3674 16.461 22.2518 16.1115 24.295C15.7619 26.3382 16.0549 28.4395 16.95 30.3092C17.8452 32.1788 19.2983 33.7247 21.1091 34.7336C22.9199 35.7425 24.9992 36.1647 27.0601 35.942L26.3471 33.982C26.2311 33.987 26.1171 34 26.0001 34Z" fill="#4AD143"/>
<path d="M40.0002 30.7787L29.5382 26.9787C29.1806 26.8488 28.7934 26.8235 28.422 26.906C28.0506 26.9884 27.7104 27.175 27.4413 27.444C27.1722 27.7129 26.9854 28.0531 26.9029 28.4244C26.8203 28.7958 26.8454 29.1831 26.9752 29.5407L30.7792 39.9997L34.6792 36.0997L37.4722 38.8927L38.8862 37.4787L36.1002 34.6827L40.0002 30.7787ZM31.5862 36.3647L28.8552 28.8547L36.3652 31.5857L31.5862 36.3647Z" fill="#4AD143"/>
</g>
<defs>
<clipPath id="clip0_1104_12969">
<rect width="24" height="24" fill="white" transform="translate(16 16)"/>
</clipPath>
</defs>
</svg>
