<svg width="17" height="16" viewBox="0 0 17 16" fill="none" xmlns="http://www.w3.org/2000/svg">
<g clip-path="url(#clip0_1709_43574)">
<path d="M16.4999 15.0578L12.3252 10.8831C13.4096 9.55686 13.9428 7.86453 13.8144 6.15617C13.6861 4.44782 12.906 2.85415 11.6356 1.70481C10.3652 0.555472 8.70158 -0.0616068 6.98895 -0.0187856C5.27632 0.0240356 3.64566 0.723481 2.43426 1.93487C1.22287 3.14627 0.523425 4.77693 0.480604 6.48956C0.437783 8.20219 1.05486 9.86577 2.2042 11.1362C3.35354 12.4066 4.94721 13.1867 6.65556 13.315C8.36392 13.4434 10.0563 12.9102 11.3825 11.8258L15.5572 16.0005L16.4999 15.0578ZM7.16652 12.0005C6.11169 12.0005 5.08054 11.6877 4.20348 11.1016C3.32642 10.5156 2.64283 9.68265 2.23916 8.70811C1.8355 7.73357 1.72988 6.66122 1.93567 5.62665C2.14145 4.59208 2.64941 3.64178 3.39529 2.8959C4.14117 2.15002 5.09147 1.64206 6.12604 1.43628C7.1606 1.23049 8.23296 1.33611 9.2075 1.73977C10.182 2.14344 11.015 2.82703 11.601 3.70409C12.1871 4.58115 12.4999 5.6123 12.4999 6.66713C12.4983 8.08113 11.9359 9.43676 10.936 10.4366C9.93615 11.4365 8.58052 11.9989 7.16652 12.0005Z" fill="#5A6159"/>
</g>
<defs>
<clipPath id="clip0_1709_43574">
<rect width="16" height="16" fill="white" transform="translate(0.5)"/>
</clipPath>
</defs>
</svg>
