<svg width="56" height="56" viewBox="0 0 56 56" fill="none" xmlns="http://www.w3.org/2000/svg">
<rect width="56" height="56" rx="28" fill="#F1F9F0"/>
<g clip-path="url(#clip0_1104_12979)">
<path d="M17.8782 21.1211L16.2932 19.5361L17.7072 18.1221L19.2932 19.7071C19.4836 19.8892 19.7368 19.9908 20.0002 19.9908C20.2636 19.9908 20.5168 19.8892 20.7072 19.7071L24.2932 16.1221L25.7072 17.5361L22.1212 21.1211C21.8426 21.3998 21.5119 21.6208 21.1479 21.7716C20.7839 21.9224 20.3937 22 19.9997 22C19.6057 22 19.2156 21.9224 18.8515 21.7716C18.4875 21.6208 18.1568 21.3998 17.8782 21.1211ZM28.0002 21.0001H40.0002V19.0001H28.0002V21.0001ZM20.0002 30.0001C20.3943 30.0013 20.7847 29.9241 21.1488 29.7732C21.5129 29.6224 21.8434 29.4007 22.1212 29.1211L25.7072 25.5361L24.2932 24.1221L20.7072 27.7071C20.5168 27.8892 20.2636 27.9908 20.0002 27.9908C19.7368 27.9908 19.4836 27.8892 19.2932 27.7071L17.7072 26.1221L16.2932 27.5361L17.8782 29.1211C18.1562 29.4006 18.487 29.6223 18.8512 29.7731C19.2154 29.924 19.606 30.0012 20.0002 30.0001ZM28.0002 29.0001H40.0002V27.0001H28.0002V29.0001ZM20.0002 38.0001C20.3943 38.0013 20.7847 37.9241 21.1488 37.7732C21.5129 37.6224 21.8434 37.4007 22.1212 37.1211L25.7072 33.5361L24.2932 32.1221L20.7072 35.7071C20.5168 35.8892 20.2636 35.9908 20.0002 35.9908C19.7368 35.9908 19.4836 35.8892 19.2932 35.7071L17.7072 34.1221L16.2932 35.5361L17.8782 37.1211C18.1562 37.4006 18.487 37.6223 18.8512 37.7731C19.2154 37.924 19.606 38.0012 20.0002 38.0001ZM28.0002 37.0001H40.0002V35.0001H28.0002V37.0001Z" fill="#4AD143"/>
</g>
<defs>
<clipPath id="clip0_1104_12979">
<rect width="24" height="24" fill="white" transform="translate(16 16)"/>
</clipPath>
</defs>
</svg>
