<svg width="18" height="14" viewBox="0 0 18 14" fill="none" xmlns="http://www.w3.org/2000/svg">
<path d="M14.2358 0.980957H3.76424C3.34577 0.980957 2.9314 1.06342 2.54481 1.22362C2.15822 1.38383 1.80698 1.61864 1.51118 1.91464C1.21537 2.21064 0.98079 2.56203 0.820839 2.94873C0.660889 3.33543 0.578704 3.74985 0.57898 4.16832V9.83147C0.578704 10.2499 0.660889 10.6644 0.820839 11.0511C0.98079 11.4378 1.21537 11.7892 1.51118 12.0852C1.80698 12.3812 2.15822 12.616 2.54481 12.7762C2.9314 12.9364 3.34577 13.0188 3.76424 13.0188H14.2358C14.6543 13.0188 15.0687 12.9364 15.4552 12.7762C15.8418 12.616 16.1931 12.3812 16.4889 12.0852C16.7847 11.7892 17.0193 11.4378 17.1792 11.0511C17.3392 10.6644 17.4214 10.2499 17.4211 9.83147V4.16832C17.4214 3.74985 17.3392 3.33543 17.1792 2.94873C17.0193 2.56203 16.7847 2.21064 16.4889 1.91464C16.1931 1.61864 15.8418 1.38383 15.4552 1.22362C15.0687 1.06342 14.6543 0.980957 14.2358 0.980957ZM6.78108 9.58095V4.41885L11.219 6.9999L6.78108 9.58095Z" fill="white"/>
</svg>
