<svg width="24" height="9" viewBox="0 0 24 9" fill="none" xmlns="http://www.w3.org/2000/svg">
<path fill-rule="evenodd" clip-rule="evenodd" d="M12.49 2.85848V2.43135H13.8367V8.4373H13.0663C12.7491 8.4373 12.4917 8.19399 12.49 7.89309C12.4898 7.89324 12.4896 7.89339 12.4894 7.89353C11.947 8.27037 11.2765 8.49407 10.5522 8.49407C8.73845 8.49407 7.2678 7.09783 7.2678 5.37579C7.2678 3.65376 8.73845 2.25751 10.5522 2.25751C11.2765 2.25751 11.947 2.48121 12.4894 2.85805C12.4896 2.85819 12.4898 2.85834 12.49 2.85848ZM6.91885 0.5V0.694724C6.91885 1.0579 6.86777 1.35441 6.61934 1.70227L6.5893 1.73485C6.53506 1.79325 6.40776 1.93047 6.34719 2.00494L2.02396 7.16009H6.91885V7.88989C6.91885 8.19226 6.66061 8.43727 6.34213 8.43727H0V8.09317C0 7.67174 0.11022 7.48377 0.249536 7.28785L4.8582 1.86847H0.192133V0.5H6.91885ZM15.4701 8.4373C15.2052 8.4373 14.9898 8.23282 14.9898 7.9815V0.50003H16.4314V8.4373H15.4701ZM20.6934 2.2199C22.5199 2.2199 24 3.62666 24 5.3592C24 7.09325 22.5199 8.5 20.6934 8.5C18.867 8.5 17.3868 7.09325 17.3868 5.3592C17.3868 3.62666 18.867 2.2199 20.6934 2.2199ZM10.5522 7.21043C11.6197 7.21043 12.4846 6.38919 12.4846 5.37579C12.4846 4.36389 11.6197 3.54266 10.5522 3.54266C9.48484 3.54266 8.61985 4.36389 8.61985 5.37579C8.61985 6.38919 9.48484 7.21043 10.5522 7.21043ZM20.6934 7.20735C21.7671 7.20735 22.6385 6.38011 22.6385 5.3592C22.6385 4.33979 21.7671 3.51271 20.6934 3.51271C19.6181 3.51271 18.7484 4.33979 18.7484 5.3592C18.7484 6.38011 19.6181 7.20735 20.6934 7.20735Z" fill="white"/>
</svg>
